<svg xmlns="http://www.w3.org/2000/svg" xmlns:xlink="http://www.w3.org/1999/xlink" width="257" height="119" viewBox="0 0 257 119">
  <defs>
    <style>
      .cls-1 {
        fill: #fff;
      }

      .cls-2 {
        fill: #7ecdc7;
      }

      .cls-3 {
        fill: #fcb614;
      }

      .cls-4 {
        fill: #e78869;
      }

      .cls-5 {
        fill: #57465b;
      }

      .cls-6 {
        filter: url(#Rectangle_61);
      }
    </style>
    <filter id="Rectangle_61" x="0" y="0" width="257" height="119" filterUnits="userSpaceOnUse">
      <feOffset dy="3" input="SourceAlpha"/>
      <feGaussianBlur stdDeviation="3" result="blur"/>
      <feFlood flood-opacity="0.161"/>
      <feComposite operator="in" in2="blur"/>
      <feComposite in="SourceGraphic"/>
    </filter>
  </defs>
  <g id="The_movement" data-name="The movement" transform="translate(-912 -3546)">
    <g class="cls-6" transform="matrix(1, 0, 0, 1, 912, 3546)">
      <rect id="Rectangle_61-2" data-name="Rectangle 61" class="cls-1" width="239" height="101" rx="15" transform="translate(9 6)"/>
    </g>
    <g id="tph" transform="translate(964 3569)">
      <path id="Path_96" data-name="Path 96" class="cls-2" d="M333.43,1.408a5.866,5.866,0,0,0-6.755-.6l16.187,13.808c.377-.033.759-.05,1.143-.05a13.147,13.147,0,0,1,8.041,2.729Z" transform="translate(-282.635 -0.006)"/>
      <path id="Path_97" data-name="Path 97" class="cls-2" d="M645.927,1.4,627.713,16.944a13.147,13.147,0,0,1,8.029-2.381c.25.01.5.024.749.048L652.682.8a5.862,5.862,0,0,0-6.755.6" transform="translate(-543.09)"/>
      <path id="Path_98" data-name="Path 98" class="cls-2" d="M538.386,257.324h-.84a2.671,2.671,0,0,0-2.49,1.708l-2.288,5.935-2.287-5.935a2.666,2.666,0,0,0-2.1-1.679,13.057,13.057,0,0,1-1.589,2.073l4.346,10.474h3.282l4.272-10.278a3.009,3.009,0,0,1-.3-2.3" transform="translate(-455.772 -222.634)"/>
      <path id="Path_99" data-name="Path 99" class="cls-3" d="M378.474,110.7a13.146,13.146,0,0,0-8.041-2.729c-.384,0-.766.017-1.143.05a13.212,13.212,0,1,0,9.183,2.679m-8.041,17.725a7.243,7.243,0,1,1,7.242-7.242,7.243,7.243,0,0,1-7.242,7.242" transform="translate(-309.064 -93.418)"/>
      <path id="Path_100" data-name="Path 100" class="cls-3" d="M621.657,134.391a13.152,13.152,0,0,1-8.628-3.208,3.029,3.029,0,0,1-.952-3.08,2.932,2.932,0,0,1,.766-1.319l0,0a2.976,2.976,0,0,1,4.062-.143,7.242,7.242,0,1,0-.029-10.891,2.877,2.877,0,0,1-1.911.718,3.02,3.02,0,0,1-2.13-.883,2.989,2.989,0,0,1,.15-4.367,13.194,13.194,0,0,1,9.126-3.239c.251.009.5.024.749.048a13.211,13.211,0,0,1-1.207,26.367" transform="translate(-529.464 -93.413)"/>
      <path id="Path_101" data-name="Path 101" class="cls-4" d="M271.97,97.32a35.356,35.356,0,0,1,4.191-17.528,2.767,2.767,0,0,1,2.4-1.379h.012a2.775,2.775,0,0,1,2.536,3.885,39.648,39.648,0,0,0,0,30.042,2.775,2.775,0,0,1-2.536,3.885h0a2.768,2.768,0,0,1-2.4-1.389,35.41,35.41,0,0,1-4.2-17.517" transform="translate(-235.305 -67.843)"/>
      <path id="Path_102" data-name="Path 102" class="cls-4" d="M800.545,116.228a2.775,2.775,0,0,1-2.532-3.894,36.894,36.894,0,0,0,2.971-15.012,36.9,36.9,0,0,0-2.971-15.012,2.775,2.775,0,0,1,2.532-3.894h.011a2.769,2.769,0,0,1,2.386,1.358c2.755,4.669,4.224,10.792,4.224,17.549a34.823,34.823,0,0,1-4.228,17.538,2.77,2.77,0,0,1-2.392,1.369" transform="translate(-690.227 -67.844)"/>
      <path id="Path_103" data-name="Path 103" class="cls-5" d="M3.987,399.255H0V396.9H10.858v2.35H6.871v10.111H3.987Z" transform="translate(0 -343.398)"/>
      <path id="Path_104" data-name="Path 104" class="cls-5" d="M103.46,396.9v12.461h-2.884v-5.109h-5.66v5.109H92.032V396.9h2.884v4.913h5.66V396.9Z" transform="translate(-79.625 -343.398)"/>
      <path id="Path_105" data-name="Path 105" class="cls-5" d="M288.8,399.255h-3.987V396.9h10.858v2.35H291.68v10.111H288.8Z" transform="translate(-246.413 -343.398)"/>
      <path id="Path_106" data-name="Path 106" class="cls-5" d="M386.49,407.051v2.314h-9.648V396.9h9.416v2.314h-6.551v2.706h5.785v2.243h-5.785v2.884Z" transform="translate(-326.039 -343.398)"/>
      <path id="Path_107" data-name="Path 107" class="cls-5" d="M513.611,401.427c0,2.777-2.083,4.5-5.411,4.5h-2.51v3.436h-2.884V396.906H508.2c3.329,0,5.411,1.727,5.411,4.521m-2.919,0c0-1.371-.89-2.172-2.652-2.172h-2.35v4.325h2.35c1.762,0,2.652-.8,2.652-2.154" transform="translate(-435.022 -343.398)"/>
      <path id="Path_108" data-name="Path 108" class="cls-5" d="M706.086,396.9v12.461h-2.368l-6.213-7.565v7.565h-2.848V396.9h2.385l6.195,7.565V396.9Z" transform="translate(-601.01 -343.398)"/>
      <path id="Path_109" data-name="Path 109" class="cls-5" d="M850.142,396.9v12.461h-2.884v-5.109H841.6v5.109h-2.884V396.9H841.6v4.913h5.661V396.9Z" transform="translate(-725.646 -343.398)"/>
      <path id="Path_110" data-name="Path 110" class="cls-5" d="M944.609,403.883V396.9h.559a2.325,2.325,0,0,1,2.325,2.325v4.547c0,2.368,1.032,3.346,2.777,3.346,1.762,0,2.777-.979,2.777-3.346V399.23a2.325,2.325,0,0,1,2.325-2.325h.523v6.978c0,3.667-2.1,5.7-5.643,5.7s-5.643-2.029-5.643-5.7" transform="translate(-817.265 -343.398)"/>
      <path id="Path_111" data-name="Path 111" class="cls-5" d="M1060.877,405.966c0,2.154-1.709,3.4-4.984,3.4h-6.444V396.905h6.088c3.115,0,4.717,1.3,4.717,3.24a3,3,0,0,1-1.656,2.741,3.077,3.077,0,0,1,2.279,3.08m-8.562-6.889v2.937h2.866c1.406,0,2.172-.5,2.172-1.477s-.765-1.46-2.172-1.46Zm5.661,6.586c0-1.05-.8-1.549-2.3-1.549h-3.364v3.079h3.364c1.5,0,2.3-.463,2.3-1.531" transform="translate(-907.971 -343.398)"/>
      <path id="Path_112" data-name="Path 112" class="cls-5" d="M591.046,396.988h3.4l4.734,12.449h-1.4a2.664,2.664,0,0,1-2.5-1.755l-2.527-6.955-2.55,6.962a2.664,2.664,0,0,1-2.5,1.748h-1.382Z" transform="translate(-507.27 -343.469)"/>
      <path id="Path_113" data-name="Path 113" class="cls-5" d="M193.024,396.988h3.4l4.734,12.449h-1.4a2.664,2.664,0,0,1-2.5-1.755l-2.527-6.955-2.551,6.962a2.664,2.664,0,0,1-2.5,1.748H188.29Z" transform="translate(-162.906 -343.469)"/>
    </g>
  </g>
</svg>
