<?xml version="1.0" encoding="utf-8"?>
<!-- Generator: Adobe Illustrator 23.0.3, SVG Export Plug-In . SVG Version: 6.00 Build 0)  -->
<svg version="1.1" id="Layer_1" xmlns="http://www.w3.org/2000/svg" xmlns:xlink="http://www.w3.org/1999/xlink" x="0px" y="0px"
	 viewBox="0 0 200 199.5" style="enable-background:new 0 0 200 199.5;" xml:space="preserve">
<style type="text/css">
	.st0{enable-background:new    ;}
	.st1{fill:#FFFFFF;}
</style>
<g>
	<g id="cdm-support">
		<g id="cdm">
			<path d="M0,93.5v102c0,2.2,1.8,4,4,4h192c2.2,0,4-1.8,4-4v-102c0-2.2-1.8-4-4-4H4C1.8,89.5,0,91.3,0,93.5z M131,108H69
				c-2.2,0-4-1.8-4-4v0c0-2.2,1.8-4,4-4h62c2.2,0,4,1.8,4,4v0C135,106.2,133.2,108,131,108z"/>
			<circle cx="99.6" cy="25" r="25"/>
			<g class="st0">
				<path class="st1" d="M69.3,164.4c-0.7,0.6-1.6,1.1-2.4,1.5s-1.8,0.7-2.9,1c-1,0.2-2.2,0.3-3.5,0.3c-2,0-3.8-0.4-5.5-1.1
					c-1.7-0.7-3.1-1.7-4.4-2.9c-1.2-1.2-2.2-2.7-2.9-4.4s-1-3.5-1-5.4v-0.1c0-1.9,0.3-3.7,1-5.4s1.7-3.1,2.9-4.4
					c1.2-1.3,2.7-2.3,4.4-3c1.7-0.7,3.6-1.1,5.7-1.1c1.3,0,2.4,0.1,3.4,0.3s2,0.5,2.8,0.8c0.8,0.4,1.6,0.8,2.3,1.3
					c0.7,0.5,1.4,1.1,2,1.7l-3.8,4.3c-1-0.9-2.1-1.7-3.2-2.2c-1.1-0.5-2.3-0.8-3.7-0.8c-1.1,0-2.2,0.2-3.1,0.7c-1,0.4-1.8,1-2.5,1.8
					s-1.2,1.7-1.6,2.7c-0.4,1-0.6,2.1-0.6,3.2v0.1c0,1.2,0.2,2.2,0.6,3.3c0.4,1,0.9,1.9,1.6,2.7s1.5,1.4,2.5,1.8
					c1,0.4,2,0.7,3.2,0.7c1.5,0,2.8-0.3,3.9-0.8c1.1-0.6,2.1-1.3,3.2-2.3l3.8,3.8C70.7,163.1,70,163.8,69.3,164.4z"/>
				<path class="st1" d="M109.5,158.6c-0.7,1.6-1.7,3.1-2.9,4.3s-2.8,2.1-4.5,2.8c-1.8,0.7-3.7,1-5.8,1H85.7v-26.9h10.5
					c2.1,0,4,0.3,5.8,1c1.8,0.7,3.3,1.6,4.5,2.8c1.3,1.2,2.2,2.6,2.9,4.2c0.7,1.6,1,3.4,1,5.3v0.1
					C110.5,155.2,110.2,157,109.5,158.6z M104.3,153.3c0-1.2-0.2-2.3-0.6-3.3c-0.4-1-0.9-1.9-1.7-2.6c-0.7-0.7-1.6-1.3-2.6-1.7
					s-2.1-0.6-3.3-0.6h-4.6v16.2h4.6c1.2,0,2.3-0.2,3.3-0.6c1-0.4,1.8-0.9,2.6-1.7c0.7-0.7,1.3-1.6,1.7-2.5S104.3,154.6,104.3,153.3
					L104.3,153.3z"/>
				<path class="st1" d="M146.4,166.7v-17.5l-7.6,11.5h-0.2l-7.5-11.4v17.4h-5.8v-26.9h6.4l7.1,11.4l7.1-11.4h6.4v26.9H146.4z"/>
			</g>
		</g>
	</g>
</g>
</svg>
