<svg xmlns="http://www.w3.org/2000/svg" viewBox="0 0 110.75 153.37"><defs><style>.cls-1{fill:#fff;}</style></defs><g id="Layer_2" data-name="Layer 2"><g id="part-time"><path d="M36,70.62H74.75a36,36,0,0,1,36,36v46.75a0,0,0,0,1,0,0H0a0,0,0,0,1,0,0V106.62A36,36,0,0,1,36,70.62Z"/><g id="Clock"><path d="M59.45,13.57a2.16,2.16,0,0,0-2.16,2.16V30.27l-6.86,6.86a2.14,2.14,0,0,0-.63,1.52,2.07,2.07,0,0,0,.16.82,1.11,1.11,0,0,0,.07.16,2.23,2.23,0,0,0,.27.41.91.91,0,0,0,.17.17.8.8,0,0,0,.17.15,2.09,2.09,0,0,0,1.27.41,2.42,2.42,0,0,0,1.51-.53l.18-.17,7.33-7.33a2.31,2.31,0,0,0,.67-1.63V15.73A2.15,2.15,0,0,0,61,14.2a2.19,2.19,0,0,0-1.52-.63Z"/><circle cx="71.72" cy="41.73" r="1.69"/><circle cx="58.23" cy="48.47" r="1.69"/><circle cx="76.78" cy="29.08" r="1.69"/><circle cx="71.72" cy="16.44" r="1.69"/><path d="M30.55,40.81a23.36,23.36,0,0,1-.92-2.54C29.9,39.13,30.21,40,30.55,40.81Z"/><path d="M28.37,28.91c0,.13,0,.27-.05.41v-.13A2.74,2.74,0,0,1,28.37,28.91Z"/><path d="M28.32,29.32c0,.25,0,.5,0,.76,0-.2,0-.38,0-.58A1.24,1.24,0,0,1,28.32,29.32Z"/><path d="M32.76,45.09h0c0-.08-.1-.15-.14-.23Z"/><path d="M36.87,50.28a22.89,22.89,0,0,1-2-2.26h0a26.18,26.18,0,0,1-2-2.82s.05.08.09.13c.41.65.86,1.3,1.34,1.92.11.16.24.33.38.5A29.87,29.87,0,0,0,36.87,50.28Z"/><path d="M42.38,54.65l-.49-.3L41.32,54Z"/><path d="M63.53,52.4a19.77,19.77,0,0,1-2.8.52A23.81,23.81,0,0,0,63.53,52.4Z"/><path d="M74.15,5l-.45-.3h0C73.87,4.75,74,4.85,74.15,5Z"/><path d="M80.27,48.62A27.7,27.7,0,0,1,76.84,52,31.64,31.64,0,0,0,80.27,48.62Z"/><path d="M80.34,10.47A31.55,31.55,0,0,0,76.93,7,28.31,28.31,0,0,1,80.34,10.47Z"/><path d="M82.27,13c-.39-.59-.82-1.17-1.25-1.72C81.46,11.85,81.88,12.43,82.27,13Z"/><path d="M87.3,29.55c0,.35,0,.69,0,1s0,.69-.05,1-.06.69-.1,1c-.06.68-.16,1.36-.28,2a.56.56,0,0,1,0,.07c-.06.31-.12.63-.19,1v0c-.07.33-.15.66-.23,1s-.15.6-.24.89a1,1,0,0,1,0,.14c-.08.29-.17.59-.26.87s-.1.31-.16.47c-.14.41-.29.81-.44,1.2A30.45,30.45,0,0,1,83,44.93c-.11.16-.21.33-.31.49l-.28.42c-.16.25-.33.5-.5.73s-.37.52-.57.77c-.33.43-.67.85-1,1.27h0A31.64,31.64,0,0,1,76.84,52l-.82.67c-.56.45-1.14.87-1.72,1.26-.4.27-.79.52-1.2.76s-.9.53-1.36.77-1.08.56-1.63.81A29.76,29.76,0,0,1,57.76,59l-1,0-1,0c-.35,0-.68-.06-1-.09-.67-.08-1.36-.17-2-.29h-.06c-.31,0-.63-.11-.94-.18s-.68-.15-1-.24l-.89-.23-.14,0-.87-.27-.46-.16c-.42-.13-.81-.28-1.21-.43a28.8,28.8,0,0,1-4.68-2.34L41.32,54l-.58-.41L40,53c-.44-.34-.87-.68-1.29-1s-.66-.59-1-.89A30,30,0,0,1,32,43.88l-.39-.72-.44-.88-.3-.65c-.13-.27-.24-.54-.36-.82-.34-.83-.65-1.68-.92-2.54-.15-.46-.27-.93-.4-1.4s-.23-.95-.33-1.42-.18-1-.26-1.46-.13-1-.18-1.48c0-.24-.05-.49-.07-.74,0-.5-.06-1-.08-1.51v-.18c0-.26,0-.51,0-.76s0-.28.05-.41a2.74,2.74,0,0,0-.05.28,27.54,27.54,0,0,1,.15-2.86.11.11,0,0,0-.07-.12l-3.91-1.37a.12.12,0,0,1,0-.2L35.3,15.31a.12.12,0,0,1,.19.07l2.65,13.21a.11.11,0,0,1-.15.13l-3.61-1.26a.11.11,0,0,0-.15.1c0,.49,0,1.49,0,1.83a22.55,22.55,0,0,0,.3,3.85c0,.24.08.49.13.72.09.48.2,1,.32,1.44a21.1,21.1,0,0,0,1.11,3.28c.13.31.26.6.4.9h0c.14.29.28.58.44.86l.1.17c.13.26.28.53.43.78v0s0,0,0,0h0a.22.22,0,0,0,.05.08l0,.06a4.11,4.11,0,0,0,.24.39c.08.15.18.3.28.45s.27.42.43.63a7.11,7.11,0,0,0,.54.72.34.34,0,0,0,.09.12,7.49,7.49,0,0,0,.57.72,8,8,0,0,0,.68.77,8.43,8.43,0,0,0,.65.69,6,6,0,0,0,.68.65s0,0,0,0q.33.33.66.6a.19.19,0,0,0,.1.08,7.57,7.57,0,0,0,.7.57c.27.22.54.43.82.63l.1.08c.24.17.48.34.72.49h0l.2.13.63.39.11.07.75.42a0,0,0,0,0,0,0c.33.17.67.35,1,.51s.69.32,1,.46h0c.34.15.69.29,1,.42h0c.35.14.71.26,1.07.37h.07c.35.12.71.22,1.08.32s.76.18,1.13.26.72.14,1.08.19l.17,0c.34.06.68.1,1,.13l.26,0c.31,0,.61.05.92.06h.17c.37,0,.73,0,1.11,0h0c.4,0,.8,0,1.19,0l.8-.06H60l.7-.08h.07a19.77,19.77,0,0,0,2.8-.52,6.06,6.06,0,0,0,.61-.16l.23-.07a3.62,3.62,0,0,0,.56-.17l.74-.24.59-.22a.19.19,0,0,1,.1,0c.33-.13.65-.27,1-.42s.47-.2.7-.32.7-.34,1-.53.41-.23.61-.35c.61-.35,1.2-.72,1.78-1.13v0A21.46,21.46,0,0,0,73.67,47l.56-.52.06-.06.25-.25.35-.35c.19-.2.39-.41.57-.62h0a3.23,3.23,0,0,0,.35-.4l.21-.24s0,0,0,0c.17-.21.34-.42.49-.63a5.72,5.72,0,0,0,.48-.65c.16-.19.29-.4.43-.6s.1-.16.16-.24l0-.08,0-.07c.11-.17.21-.33.3-.49.2-.33.4-.66.57-1h0c.18-.34.36-.67.51-1s.3-.63.44-.95c0-.05,0-.11.07-.17.14-.32.26-.64.38-1a0,0,0,0,0,0,0c.13-.35.25-.7.36-1.07a.11.11,0,0,0,0-.06c.12-.36.22-.72.31-1.08s.19-.76.26-1.14.15-.72.2-1.08a1,1,0,0,1,0-.17c.06-.34.1-.67.14-1a1.41,1.41,0,0,1,0-.21c0-.34.06-.67.07-1a.62.62,0,0,0,0-.13q0-.56,0-1.11v-.08c0-.4,0-.78,0-1.18,0-.24,0-.49,0-.73,0-.07,0-.13,0-.2,0-.24,0-.49-.07-.72a22.55,22.55,0,0,0-.54-2.86c0-.24-.11-.47-.18-.7s-.14-.46-.21-.7-.16-.49-.25-.73a6.13,6.13,0,0,0-.22-.6l0-.09c-.13-.36-.29-.7-.44-1.05-.08-.19-.18-.39-.27-.59-.19-.38-.38-.77-.59-1.14s-.33-.61-.52-.91a22.4,22.4,0,0,0-2.71-3.63c-.28-.31-.59-.62-.88-.92l-.67-.62-.27-.25c-.24-.22-.49-.43-.75-.64L72.49,11c-.51-.4-1-.79-1.59-1.16a1.53,1.53,0,0,1-.21-.14A23.49,23.49,0,0,0,58,5.9a3.06,3.06,0,0,1-3-2.39A3,3,0,0,1,57.81,0,29.3,29.3,0,0,1,73.65,4.62l0,0,.45.3a8.59,8.59,0,0,1,.73.5l.77.56q.64.5,1.26,1s0,0,0,0a31.55,31.55,0,0,1,3.41,3.43c.24.27.46.55.68.83.43.55.86,1.13,1.25,1.72a27.11,27.11,0,0,1,1.55,2.58c.15.26.27.52.41.78s.25.51.37.77.23.53.34.79.21.49.31.74c.28.74.55,1.49.78,2.26l.09.3c.07.25.14.48.2.73s.14.55.2.82.13.55.19.83.11.56.16.84a.76.76,0,0,0,0,.21c0,.24.08.48.11.71a.22.22,0,0,1,0,.08c0,.26.07.52.1.78a1.79,1.79,0,0,1,0,.24l.06.52q.06.81.09,1.62a1.62,1.62,0,0,0,0,.22v.71Z"/><path d="M37.52,41.54a.22.22,0,0,1-.05-.08l0,0A.09.09,0,0,0,37.52,41.54Z"/></g><path class="cls-1" d="M31.39,117.76a1.93,1.93,0,0,0,1.93,1.8H77.43a1.93,1.93,0,0,0,1.93-1.8h0V107.07a2.27,2.27,0,0,0-2.28-2.27H33.65a2.26,2.26,0,0,0-2.27,2.27v10.69Z"/><path class="cls-1" d="M77.43,120.28H33.32a2.68,2.68,0,0,1-1.94-.84v14.28A2.27,2.27,0,0,0,33.65,136H77.1a2.28,2.28,0,0,0,2.28-2.28V119.44A2.72,2.72,0,0,1,77.43,120.28Z"/><path class="cls-1" d="M67.38,102.88a1.45,1.45,0,0,1-1.45-1.44,10.56,10.56,0,1,0-21.11,0,1.44,1.44,0,1,1-2.88,0,13.44,13.44,0,1,1,26.87,0A1.44,1.44,0,0,1,67.38,102.88Z"/><path d="M58.86,111.71a.62.62,0,0,1-.22.47L55.23,115a.57.57,0,0,1-.41.14.56.56,0,0,1-.4-.14L51,112.18a.59.59,0,0,1-.22-.47.67.67,0,0,1,.14-.39.61.61,0,0,1,.86-.07l3,2.55,3-2.55a.6.6,0,0,1,.85.07A.62.62,0,0,1,58.86,111.71Z"/><circle cx="54.82" cy="110.51" r="1.52"/></g></g></svg>