<?xml version="1.0" encoding="utf-8"?>
<!-- Generator: Adobe Illustrator 23.0.3, SVG Export Plug-In . SVG Version: 6.00 Build 0)  -->
<svg version="1.1" id="Layer_1" xmlns="http://www.w3.org/2000/svg" xmlns:xlink="http://www.w3.org/1999/xlink" x="0px" y="0px"
	 viewBox="0 0 200 200" style="enable-background:new 0 0 200 200;" xml:space="preserve">
<style type="text/css">
	.st0{fill:#FFFFFF;}
</style>
<g>
	<g id="student">
		<circle cx="100" cy="92.3" r="29.3"/>
		<path d="M74.1,40.1h51.8v27c0,0-10.5-9.5-25.9-9.7c-15.4-0.2-25.9,9.7-25.9,9.7V40.1z"/>
		<polygon points="100,48.8 38,30.2 100,11.6 162,30.2 		"/>
		<path class="st0" d="M100,49.5L35.7,30.2L100,10.9l64.3,19.3L100,49.5z M40.3,30.2l59.7,18l59.8-18l-59.8-18L40.3,30.2z"/>
		<path d="M75.8,126h48.3c24.8,0,44.9,14.4,44.9,32.1v41.7l0,0H30.9l0,0v-41.7C30.9,140.4,51,126,75.8,126z"/>
		<g id="three_finger">
			<path class="st0" d="M89.4,167.5H110l0,0v14.3c0,5.7-4.6,10.3-10.3,10.3l0,0c-5.7,0-10.3-4.6-10.3-10.3V167.5L89.4,167.5z"/>
			<path class="st0" d="M96.6,148.4L96.6,148.4c1.2,0,2.1,0.9,2.1,2.1l0,0v17l0,0h-4.3l0,0v-17C94.5,149.3,95.4,148.4,96.6,148.4
				C96.6,148.4,96.6,148.4,96.6,148.4z"/>
			<path class="st0" d="M96.4,174.9L96.4,174.9c-1.2,0.7-2.8,0.4-3.5-0.8l-2.9-4.7c-0.7-1.2-0.4-2.8,0.8-3.5l0,0
				c1.2-0.7,2.8-0.4,3.5,0.8l2.9,4.7C98,172.6,97.6,174.2,96.4,174.9z"/>
			<path d="M94.4,175.7c-0.2,0-0.5,0-0.7-0.1c-0.8-0.2-1.4-0.7-1.8-1.3l-2.9-4.7c-0.4-0.7-0.5-1.5-0.4-2.2c0.2-0.8,0.7-1.4,1.3-1.8
				l0,0c1.4-0.8,3.2-0.4,4.1,1l2.9,4.7c0.4,0.7,0.5,1.5,0.4,2.2C96.9,174.7,95.7,175.7,94.4,175.7L94.4,175.7z M90.4,166.2
				c-1,0.6-1.3,1.9-0.7,2.9c0,0,0,0,0,0l2.9,4.7c0.3,0.5,0.8,0.8,1.3,0.9c0.5,0.1,1.1,0,1.6-0.3c0.5-0.3,0.8-0.8,1-1.3
				c0.1-0.5,0-1.1-0.3-1.6l-2.9-4.8C92.6,165.8,91.3,165.5,90.4,166.2L90.4,166.2z"/>
			<path class="st0" d="M110.4,180.6c-0.5,0.6-1.2,0.9-2,0.9c-0.7,0-1.3-0.3-1.8-0.7l-4.5-4c-0.6-0.6-1.5-0.9-2.3-1l-3-0.2
				c-1.5-0.1-2.6-1.4-2.4-2.9s1.4-2.6,2.9-2.4l5.3,0.4c0.7,0,1.3,0.4,1.8,0.9c0.1,0.1,0.2,0.2,0.3,0.3l5.6,4.9
				C111.3,177.8,111.4,179.5,110.4,180.6z"/>
			<path d="M108.4,181.9c-0.7,0-1.4-0.3-2-0.8l-4.5-4c-0.6-0.5-1.3-0.8-2.1-0.9l-3-0.2c-1.7-0.1-3-1.6-2.8-3.3c0,0,0,0,0,0
				c0.1-1.7,1.6-3,3.3-2.8l5.3,0.4c0.8,0,1.5,0.4,2.1,1c0.1,0.1,0.2,0.2,0.3,0.3l5.6,4.9c1.3,1.1,1.4,3.1,0.3,4.3c0,0,0,0,0,0l0,0
				C110.2,181.6,109.3,181.9,108.4,181.9z M97,170.7c-1.2,0-2.3,0.9-2.3,2.1c0,1.2,0.9,2.3,2.1,2.3l3,0.2c0.9,0.1,1.8,0.5,2.6,1.1
				l4.5,4c0.9,0.8,2.3,0.7,3.2-0.2l0,0c0.8-0.9,0.7-2.3-0.2-3.1c0,0,0,0,0,0l-5.6-4.9c-0.1-0.1-0.2-0.2-0.3-0.4
				c-0.4-0.4-0.9-0.7-1.5-0.8l-5.3-0.4L97,170.7z"/>
			<path class="st0" d="M107.9,148.4L107.9,148.4c1.2,0,2.1,0.9,2.1,2.1v17l0,0h-4.2l0,0v-17C105.8,149.3,106.7,148.4,107.9,148.4
				L107.9,148.4z"/>
			<path class="st0" d="M102.2,144.1L102.2,144.1c1.2,0,2.1,0.9,2.1,2.1l0,0v21.3l0,0h-4.2l0,0v-21.3
				C100.1,145.1,101.1,144.1,102.2,144.1C102.2,144.1,102.2,144.1,102.2,144.1z"/>
		</g>
	</g>
</g>
</svg>
