<svg xmlns="http://www.w3.org/2000/svg" viewBox="0 0 180.99677 180.99674">
  <defs>
    <style>
      .cls-1 {
        fill: #faa755;
      }

      .cls-2 {
        fill: #f05655;
      }

      .cls-3 {
        fill: #f9b475;
      }
    </style>
  </defs>
  <title>sumFavicon</title>
  <g id="Layer_2" data-name="Layer 2">
    <g id="Layer_1-2" data-name="Layer 1">
      <path class="cls-1" d="M90.498,0a90.49837,90.49837,0,1,0,90.49877,90.498A90.49993,90.49993,0,0,0,90.498,0m45.93,82.5696a46.64868,46.64868,0,1,1-36.20234-37.65627A27.48393,27.48393,0,1,1,136.428,82.5696"/>
      <path class="cls-2" d="M129.20287,90.49813q0,.75075-.023,1.50147c-.03936.99282-.11734,1.97-.22723,2.948-.05495.48491-.11734.96907-.19529,1.44579a38.47241,38.47241,0,0,1-5.15266,14.17634q-.97355,1.595-2.08811,3.08833A38.80472,38.80472,0,0,1,82.69521,128.421a36.88462,36.88462,0,0,1-3.7069-.9542,38.35659,38.35659,0,0,1-10.133-4.87123,38.62465,38.62465,0,0,1-12.39342-13.64391c-.375-.68836-.727-1.38415-1.05519-2.09626a38.50051,38.50051,0,0,1-3.62074-16.35726,39.116,39.116,0,0,1,.6334-6.94372c.05494-.30445.11732-.60966.17969-.90668a38.27073,38.27073,0,0,1,2.52622-7.85783A39.37088,39.37088,0,0,1,57.142,70.87212c.297-.50048.60222-1.001.923-1.48588.4693-.7188.95345-1.41459,1.46954-2.09477.51683-.68836,1.05592-1.353,1.61137-2.002.73438-.85988,1.50072-1.69676,2.3064-2.48685a38.7636,38.7636,0,0,1,15.536-9.27315q1.81891-.56362,3.7069-.9542a38.52384,38.52384,0,0,1,14.84017-.13293A27.47968,27.47968,0,0,0,128.8041,84.94672a39.33856,39.33856,0,0,1,.39877,5.55141"/>
      <path class="cls-3" d="M53.877,132.24683a16.28239,16.28239,0,0,1-21.48616,15.4194,16.57328,16.57328,0,0,1,20.96783-19.51092,16.33048,16.33048,0,0,1,.51833,4.09152"/>
      <path class="cls-3" d="M35.08261,94.12392a16.28271,16.28271,0,0,1-26.096-4.28979,16.57214,16.57214,0,0,1,28.6222,1.02994,16.31056,16.31056,0,0,1-2.5262,3.25985"/>
      <path class="cls-3" d="M48.74969,53.8767A16.28233,16.28233,0,0,1,33.3303,32.39055,16.57329,16.57329,0,0,1,52.84122,53.35839a16.33009,16.33009,0,0,1-4.09153.51831"/>
      <path class="cls-3" d="M86.873,35.08235a16.2827,16.2827,0,0,1,4.28978-26.096,16.57212,16.57212,0,0,1-1.02993,28.62218A16.28972,16.28972,0,0,1,86.873,35.08235"/>
      <path class="cls-3" d="M145.91453,86.87268a16.28266,16.28266,0,0,1,26.096,4.28982,16.57214,16.57214,0,0,1-28.6222-1.02994,16.291,16.291,0,0,1,2.52622-3.25988"/>
      <path class="cls-3" d="M132.24708,127.11955a16.28237,16.28237,0,0,1,15.41937,21.48617,16.57331,16.57331,0,0,1-19.51092-20.96784,16.33032,16.33032,0,0,1,4.09155-.51833"/>
      <path class="cls-3" d="M94.12419,145.91428a16.28268,16.28268,0,0,1-4.28981,26.096,16.57212,16.57212,0,0,1,1.02994-28.62219,16.29089,16.29089,0,0,1,3.25987,2.52619"/>
    </g>
  </g>
</svg>
