<svg xmlns="http://www.w3.org/2000/svg" viewBox="0 0 144.12129 144.12241">
  <defs>
    <style>
      .cls-1 {
        fill: #f58159;
      }

      .cls-2 {
        fill: #faa755;
      }

      .cls-3 {
        fill: #f05655;
      }
    </style>
  </defs>
  <title>sumLoading</title>
  <g id="Layer_2" data-name="Layer 2">
    <g id="Layer_1-2" data-name="Layer 1">
      <g>
        <path class="cls-1" d="M43.30821,106.2301a17.20355,17.20355,0,0,1-22.698,16.29,17.50719,17.50719,0,0,1,22.15-20.612,17.2012,17.2012,0,0,1,.548,4.322"/>
        <path class="cls-2" d="M27.568,75.89081A17.20045,17.20045,0,0,1,0,71.35883a17.50617,17.50617,0,0,1,30.237,1.089,17.23859,17.23859,0,0,1-2.669,3.443"/>
        <path class="cls-2" d="M37.89122,43.3078a17.201,17.201,0,0,1-16.289-22.698,17.507,17.507,0,0,1,20.611,22.15,17.20119,17.20119,0,0,1-4.322.548"/>
        <path class="cls-2" d="M68.23112,27.568A17.20165,17.20165,0,0,1,72.7621,0a17.50735,17.50735,0,0,1-1.088,30.237,17.26631,17.26631,0,0,1-3.443-2.669"/>
        <path class="cls-1" d="M100.8141,37.8913a17.20354,17.20354,0,0,1,22.698-16.29,17.50722,17.50722,0,0,1-22.15,20.612,17.19492,17.19492,0,0,1-.548-4.322"/>
        <path class="cls-3" d="M116.5533,68.23062a17.20042,17.20042,0,0,1,27.568,4.532,17.50731,17.50731,0,0,1-30.237-1.088,17.24538,17.24538,0,0,1,2.669-3.444"/>
        <path class="cls-3" d="M106.23012,100.8136a17.20355,17.20355,0,0,1,16.29,22.698,17.50719,17.50719,0,0,1-20.612-22.15,17.20714,17.20714,0,0,1,4.322-.548"/>
        <path class="cls-3" d="M75.89122,116.55341a17.2028,17.2028,0,0,1-4.532,27.569,17.50577,17.50577,0,0,1,1.088-30.237,17.241,17.241,0,0,1,3.444,2.668"/>
      </g>
    </g>
  </g>
</svg>
