<svg xmlns="http://www.w3.org/2000/svg" viewBox="0 0 308.8091 101.161">
  <defs>
    <style>
      .cls-1 {
        fill: #fff;
      }
    </style>
  </defs>
  <title>sumTypeLogo</title>
  <g id="Layer_2" data-name="Layer 2">
    <g id="Layer_1-2" data-name="Layer 1">
      <g>
        <path class="cls-1" d="M187.1783.00018v54.87a46.29,46.29,0,1,1-92.58,0V.00018a27.43368,27.43368,0,0,1,27.44,27.439v27.431a18.8505,18.8505,0,0,0,37.701,0v-27.431a27.43378,27.43378,0,0,1,27.439-27.439"/>
        <path class="cls-1" d="M226.81792.00018v101.16h-27.44v-73.721a27.43876,27.43876,0,0,1,27.44-27.439"/>
        <path class="cls-1" d="M308.8091,27.43968v73.721h-27.431V.0007a27.43044,27.43044,0,0,1,27.431,27.439"/>
        <rect class="cls-1" x="240.22902" y="0.00058" width="27.42999" height="101.16"/>
        <path class="cls-1" d="M82.399,69.47a31.38772,31.38772,0,0,0-.59-6.1A31.66507,31.66507,0,0,0,50.71,37.79H27.439a6.1,6.1,0,1,1,0-12.2H50.58v.001a25.25222,25.25222,0,0,0,11.54-2.76A25.54773,25.54773,0,0,0,76.17.001V0H31.689A31.62659,31.62659,0,0,0,0,31.69,31.66613,31.66613,0,0,0,31.689,63.37H54.96a6.10364,6.10364,0,0,1,5.899,4.55,5.99636,5.99636,0,0,1,.2,1.55,6.09777,6.09777,0,0,1-6.099,6.1H25.589l-.01.002a25.05935,25.05935,0,0,0-5.819.676l-.01.002v.001A25.57436,25.57436,0,0,0,4.377,86.845q-.594.876-1.114,1.802a25.45471,25.45471,0,0,0-2.88,8.072A25.79472,25.79472,0,0,0,0,101.161H51.179v-.01a31.683,31.683,0,0,0,31.22-31.68Z"/>
      </g>
    </g>
  </g>
</svg>
