<?xml version="1.0" encoding="utf-8"?>
<!-- Generator: Adobe Illustrator 23.0.3, SVG Export Plug-In . SVG Version: 6.00 Build 0)  -->
<svg version="1.1" id="Layer_1" xmlns="http://www.w3.org/2000/svg" xmlns:xlink="http://www.w3.org/1999/xlink" x="0px" y="0px"
	 viewBox="0 0 200 200" style="enable-background:new 0 0 200 200;" xml:space="preserve">
<g>
	<g id="teacher">
		<g id="teacher-2">
			<g id="whiteboard">
				<path d="M200,0v130h-97.5c-1.9,0-3.5-1.6-3.5-3.5l0,0c0-1.9,1.6-3.5,3.5-3.5H163v-5.6c0-3.5,2.9-6.4,6.4-6.4l0,0H193V7H7v116
					h9.8c1.8,0,3.2,1.4,3.2,3.2v1.3c0,1.4-1.1,2.5-2.5,2.5H0V0H200z"/>
				<g id="text">
					<rect x="25" y="60" width="150" height="2"/>
					<rect x="65" y="78" width="70" height="2"/>
					<rect x="25" y="42" width="150" height="2"/>
					<rect x="25" y="24" width="150" height="2"/>
				</g>
			</g>
			<g id="teacher-3">
				<path d="M65.5,103.5c0,10.4-9,18.6-19.7,17.4c-7-0.8-12.9-6-14.7-12.8c-2.1-8,1.5-16.1,8.4-19.9l0.1-0.1h-0.1v-1.4
					c0-4.3,3-8.1,7.2-8.7c5.3-0.8,9.8,3.3,9.8,8.4l0,0v1.7C62.1,91.3,65.5,97.1,65.5,103.5z"/>
				<path d="M124.8,92.2c0,1.7-0.8,3.3-2.1,4.3L68,142l0,0c0,0.1,0,0.2,0,0.3l-5.9,40.3c4.9,4.5,7.7,10.8,7.9,17.4H26
					c0.2-6.6,3-12.9,7.9-17.4L30,156.1L23,200H11l9.4-57.2c0-0.1,0-0.2,0.1-0.3c3.7-18.8,22.7-17.5,23.2-17.4l0,0
					c0.5,0,1.1-0.1,1.6-0.1h5.5c4.2,0,8.3,1.6,11.5,4.4c0.7-0.3,1.4-0.7,2.1-1.1c0.4-0.2,0.7-0.5,1-0.8l0.1-0.1l0.1-0.1l50.4-39.5
					c2.4-1.9,5.8-1.5,7.7,0.9C124.3,89.7,124.7,90.9,124.8,92.2L124.8,92.2z"/>
				<polygon points="25.8,85.6 39.6,87.8 39.4,88.5 25.7,85.9 				"/>
				<path d="M26,85.8c-0.2,0.8-0.9,1.3-1.8,1.2s-1.3-0.9-1.2-1.8c0.2-0.8,0.9-1.3,1.7-1.2C25.6,84.1,26.1,84.9,26,85.8
					C26,85.7,26,85.8,26,85.8z"/>
			</g>
		</g>
	</g>
</g>
</svg>
