<svg xmlns="http://www.w3.org/2000/svg" width="50" height="50" viewBox="0 0 50 50">
    <path id="Exclusion_1" data-name="Exclusion 1" d="M-665-4651a24.693,24.693,0,0,1-5.038-.52,25.541,25.541,0,0,1-4.693-1.453,26.13,26.13,0,0,1-4.247-2.3,26.017,26.017,0,0,1-3.7-3.047,25.959,25.959,0,0,1-3.053-3.7,25.855,25.855,0,0,1-2.306-4.246,24.812,24.812,0,0,1-1.455-4.707A24.9,24.9,0,0,1-690-4676a25.262,25.262,0,0,1,.509-5.051,24.874,24.874,0,0,1,1.455-4.7,24.865,24.865,0,0,1,2.306-4.238,23.869,23.869,0,0,1,3.053-3.691,24.649,24.649,0,0,1,3.7-3.066,24.622,24.622,0,0,1,4.247-2.3,23.633,23.633,0,0,1,4.693-1.465A25.529,25.529,0,0,1-665-4701a25.568,25.568,0,0,1,5.039.5,23.605,23.605,0,0,1,4.691,1.465,24.546,24.546,0,0,1,4.247,2.3,24.587,24.587,0,0,1,3.7,3.066,24.017,24.017,0,0,1,3.055,3.691,24.85,24.85,0,0,1,2.3,4.238,24.846,24.846,0,0,1,1.458,4.7A25.333,25.333,0,0,1-640-4676a24.966,24.966,0,0,1-.508,5.02,24.783,24.783,0,0,1-1.458,4.707,25.839,25.839,0,0,1-2.3,4.246,26.135,26.135,0,0,1-3.055,3.7,25.948,25.948,0,0,1-3.7,3.047,26.064,26.064,0,0,1-4.247,2.3,25.51,25.51,0,0,1-4.691,1.453A24.731,24.731,0,0,1-665-4651Zm7.317-30.859h0c.153,0,.262.039.293.125s-.027.207-.177.344l-11.592,10.469,10.075,7.441a2.185,2.185,0,0,0,1.011.313c.633,0,1.066-.488,1.255-1.379l4.1-19.336a1.928,1.928,0,0,0-.2-1.668,1.084,1.084,0,0,0-.89-.41,1.6,1.6,0,0,0-.654.137l-24.08,9.3c-.824.332-1.286.742-1.27,1.152a.679.679,0,0,0,.258.469,1.747,1.747,0,0,0,.712.352l6.179,1.934,14.307-9.023A1.376,1.376,0,0,1-657.683-4681.859Z" transform="translate(690 4701)" fill="#fff"/>
</svg>
